<svg xmlns="http://www.w3.org/2000/svg" xmlns:xlink="http://www.w3.org/1999/xlink" width="500" zoomAndPan="magnify" viewBox="0 0 375 112.499997" height="150" preserveAspectRatio="xMidYMid meet" version="1.0"><defs><g/></defs><g fill="#ff3131" fill-opacity="1"><g transform="translate(16.67345, 98.677588)"><g><path d="M 28.109375 1.894531 C 42.617188 1.894531 51.4375 -5.191406 51.4375 -16.570312 C 51.4375 -26.378906 44.597656 -31.242188 35.445312 -33.46875 L 23.742188 -36.351562 C 19.207031 -37.507812 16.898438 -39.734375 16.898438 -42.949219 C 16.898438 -46.90625 20.359375 -50.039062 26.625 -50.039062 C 33.054688 -50.039062 37.835938 -46.65625 38.578125 -40.722656 L 50.449219 -40.722656 C 49.707031 -52.261719 40.722656 -60.011719 26.542969 -60.011719 C 11.457031 -60.011719 4.617188 -51.027344 4.617188 -41.628906 C 4.617188 -33.386719 9.890625 -27.617188 19.042969 -25.308594 L 29.839844 -22.585938 C 35.445312 -21.183594 38.828125 -19.621094 38.828125 -15.414062 C 38.828125 -10.796875 34.703125 -8.078125 28.027344 -8.078125 C 20.277344 -8.078125 15.496094 -11.707031 15.167969 -18.21875 L 3.214844 -18.21875 C 3.542969 -5.523438 13.1875 1.894531 28.109375 1.894531 Z M 28.109375 1.894531 "/></g></g></g><g fill="#ffffff" fill-opacity="1"><g transform="translate(84.096443, 98.677588)"><g><path d="M 30.582031 1.894531 C 46.246094 1.894531 58.609375 -10.386719 58.609375 -29.429688 C 58.609375 -48.386719 46.246094 -60.09375 30.582031 -60.09375 C 14.921875 -60.09375 2.886719 -48.386719 2.886719 -29.429688 C 2.886719 -10.304688 14.921875 1.894531 30.582031 1.894531 Z M 30.582031 -8.65625 C 20.9375 -8.65625 15.085938 -16.980469 15.085938 -29.429688 C 15.085938 -41.382812 20.9375 -49.542969 30.582031 -49.542969 C 40.226562 -49.542969 46.410156 -41.464844 46.410156 -29.429688 C 46.410156 -16.980469 40.226562 -8.65625 30.582031 -8.65625 Z M 30.582031 -8.65625 "/></g></g></g><g fill="#ffffff" fill-opacity="1"><g transform="translate(158.364635, 98.677588)"><g><path d="M 30.171875 1.894531 C 44.433594 1.894531 53.992188 -5.769531 54.984375 -19.207031 L 43.441406 -19.207031 C 42.535156 -13.601562 38.742188 -8.65625 30.914062 -8.65625 C 20.691406 -8.65625 15.085938 -16.980469 15.085938 -29.347656 C 15.085938 -41.300781 20.691406 -49.460938 30.914062 -49.460938 C 38.167969 -49.460938 42.453125 -45.421875 43.441406 -39.238281 L 55.066406 -39.238281 C 53.992188 -52.097656 44.679688 -60.011719 30.335938 -60.011719 C 14.671875 -60.011719 2.886719 -48.304688 2.886719 -29.347656 C 2.886719 -10.304688 14.507812 1.894531 30.171875 1.894531 Z M 30.171875 1.894531 "/></g></g></g><g fill="#ffffff" fill-opacity="1"><g transform="translate(228.264213, 98.677588)"><g><path d="M 57.207031 0 L 36.929688 -58.691406 L 22.835938 -58.691406 L 2.0625 0 L 15.003906 0 L 18.960938 -12.199219 L 40.226562 -12.199219 L 44.183594 0 Z M 24.648438 -29.511719 L 29.675781 -46.410156 L 34.621094 -29.511719 L 37.011719 -22.257812 L 22.257812 -22.257812 Z M 24.648438 -29.511719 "/></g></g></g><g fill="#ffffff" fill-opacity="1"><g transform="translate(300.306865, 98.677588)"><g><path d="M 40.476562 -36.023438 L 17.558594 -36.023438 L 17.558594 -58.691406 L 5.359375 -58.691406 L 5.359375 0 L 17.558594 0 L 17.558594 -25.140625 L 40.476562 -25.140625 L 40.476562 0 L 52.675781 0 L 52.675781 -58.691406 L 40.476562 -58.691406 Z M 40.476562 -36.023438 "/></g></g></g></svg>